<svg width="23" height="21" viewBox="0 0 23 21" fill="none" xmlns="http://www.w3.org/2000/svg">
<path d="M0.707031 6.86719C0.707031 11.6016 4.66797 16.2656 10.8906 20.25C11.1836 20.4375 11.5703 20.625 11.8281 20.625C12.0859 20.625 12.4727 20.4375 12.7656 20.25C18.9766 16.2656 22.9492 11.6016 22.9492 6.86719C22.9492 2.85938 20.1836 0.046875 16.5625 0.046875C14.4766 0.046875 12.8242 1.01953 11.8281 2.50781C10.8438 1.03125 9.16797 0.046875 7.08203 0.046875C3.47266 0.046875 0.707031 2.85938 0.707031 6.86719ZM2.75781 6.85547C2.75781 3.99609 4.62109 2.07422 7.14062 2.07422C9.17969 2.07422 10.3281 3.31641 11.043 4.40625C11.3477 4.85156 11.5469 4.99219 11.8281 4.99219C12.1094 4.99219 12.2852 4.83984 12.6133 4.40625C13.3633 3.33984 14.4766 2.07422 16.5039 2.07422C19.0234 2.07422 20.8984 3.99609 20.8984 6.85547C20.8984 10.8633 16.7031 15.2461 12.0391 18.3516C11.9336 18.4102 11.8633 18.457 11.8281 18.457C11.7812 18.457 11.7109 18.4102 11.6055 18.3516C6.95312 15.2461 2.75781 10.8633 2.75781 6.85547Z" fill="black"/>
</svg>
