<svg width="19" height="25" viewBox="0 0 19 25" fill="none" xmlns="http://www.w3.org/2000/svg">
<path d="M8.11328 24.7617C12.1328 24.7617 14.9453 22.6055 16.457 18.3633L18.4258 12.832C18.5547 12.4453 18.625 12.0703 18.625 11.7188C18.625 10.4883 17.7109 9.62109 16.5039 9.62109C15.7305 9.62109 15.0273 10.0664 14.6523 10.9336L13.9844 12.5391C13.9727 12.5859 13.9375 12.6094 13.9023 12.6094C13.8438 12.6094 13.8203 12.5742 13.8203 12.5156V3.82031C13.8203 2.47266 12.9531 1.60547 11.6406 1.60547C11.207 1.60547 10.8086 1.75781 10.5039 2.02734C10.3164 0.890625 9.56641 0.210938 8.44141 0.210938C7.35156 0.210938 6.55469 0.914062 6.36719 2.00391C6.08594 1.74609 5.71094 1.60547 5.3125 1.60547C4.09375 1.60547 3.27344 2.46094 3.27344 3.73828V4.85156C2.99219 4.57031 2.57031 4.41797 2.125 4.41797C0.90625 4.41797 0.0507812 5.32031 0.0507812 6.62109V16.2422C0.0507812 21.5273 3.28516 24.7617 8.11328 24.7617ZM8.05469 23.0391C4.10547 23.0391 1.70312 20.5078 1.70312 16.0664V6.80859C1.70312 6.36328 1.98438 6.05859 2.41797 6.05859C2.83984 6.05859 3.15625 6.36328 3.15625 6.80859V12.4922C3.15625 12.9375 3.51953 13.2539 3.91797 13.2539C4.33984 13.2539 4.70312 12.9375 4.70312 12.4922V3.97266C4.70312 3.52734 4.98438 3.22266 5.41797 3.22266C5.83984 3.22266 6.15625 3.52734 6.15625 3.97266V11.918C6.15625 12.3633 6.51953 12.6797 6.91797 12.6797C7.33984 12.6797 7.70312 12.3633 7.70312 11.918V2.58984C7.70312 2.14453 7.99609 1.81641 8.42969 1.81641C8.85156 1.81641 9.15625 2.14453 9.15625 2.58984V11.8477C9.15625 12.2812 9.49609 12.5977 9.91797 12.5977C10.3398 12.5977 10.7031 12.2812 10.7031 11.8477V3.97266C10.7031 3.52734 10.9961 3.22266 11.4297 3.22266C11.8633 3.22266 12.1562 3.52734 12.1562 3.97266V14.9648C12.1562 15.5625 12.5312 15.9023 13.0234 15.9023C13.4453 15.9023 13.8203 15.7148 14.0781 15.1406L15.6719 11.5664C15.8711 11.1211 16.2578 10.9688 16.6328 11.1094C17.0312 11.25 17.1602 11.6367 16.9727 12.1406L14.9219 17.8242C13.5625 21.5977 11.2188 23.0391 8.05469 23.0391Z" fill="black"/>
</svg>
