<svg width="102" height="115" viewBox="0 0 102 115" fill="none" xmlns="http://www.w3.org/2000/svg">
<mask id="path-1-inside-1" fill="white">
<path fill-rule="evenodd" clip-rule="evenodd" d="M7.69809 69.8065C3.71596 65.8244 3.71594 59.3681 7.69808 55.3859C10.0569 53.0271 13.2838 52.0656 16.3504 52.5012C15.9149 49.4348 16.8765 46.2081 19.2352 43.8494C21.594 41.4906 24.8209 40.5291 27.8875 40.9647C27.4521 37.8983 28.4137 34.6716 30.7723 32.313C33.1311 29.9542 36.358 28.9926 39.4245 29.4283C38.9893 26.3621 39.9509 23.1357 42.3094 20.7772C46.2912 16.7955 52.7466 16.7951 56.7288 20.7761C60.7111 16.7951 67.1665 16.7954 71.1483 20.7772C73.5069 23.1359 74.4685 26.3626 74.0331 29.429C77.0997 28.9933 80.3266 29.9549 82.6854 32.3137C85.1847 34.813 86.1154 38.287 85.4774 41.5121C88.5055 40.672 91.7158 41.3432 94.2225 43.8499C98.2045 47.8319 98.2046 54.288 94.2229 58.2701L94.2235 58.2707C98.2056 62.2528 98.2056 68.7092 94.2235 72.6913C91.8647 75.0501 88.6378 76.0117 85.5713 75.576C86.0065 78.6422 85.0448 81.8686 82.6864 84.2271C80.3276 86.5859 77.1006 87.5474 74.0341 87.1118C74.4695 90.1782 73.5079 93.4049 71.1493 95.7635C68.7905 98.1223 65.5635 99.0839 62.4969 98.6482C62.9324 101.715 61.9708 104.941 59.6121 107.3C55.63 111.282 49.1737 111.282 45.1916 107.3L45.1567 107.265C41.1513 110.547 35.2317 110.318 31.493 106.579C29.1344 104.221 28.1728 100.994 28.6082 97.9279C25.5416 98.3636 22.3147 97.402 19.9559 95.0432C17.5972 92.6845 16.6356 89.4579 17.0711 86.3914C14.0045 86.8271 10.7776 85.8655 8.41878 83.5067C4.67983 79.7678 4.4515 73.8476 7.73379 69.8422L7.69809 69.8065Z"/>
</mask>
<path fill-rule="evenodd" clip-rule="evenodd" d="M7.69809 69.8065C3.71596 65.8244 3.71594 59.3681 7.69808 55.3859C10.0569 53.0271 13.2838 52.0656 16.3504 52.5012C15.9149 49.4348 16.8765 46.2081 19.2352 43.8494C21.594 41.4906 24.8209 40.5291 27.8875 40.9647C27.4521 37.8983 28.4137 34.6716 30.7723 32.313C33.1311 29.9542 36.358 28.9926 39.4245 29.4283C38.9893 26.3621 39.9509 23.1357 42.3094 20.7772C46.2912 16.7955 52.7466 16.7951 56.7288 20.7761C60.7111 16.7951 67.1665 16.7954 71.1483 20.7772C73.5069 23.1359 74.4685 26.3626 74.0331 29.429C77.0997 28.9933 80.3266 29.9549 82.6854 32.3137C85.1847 34.813 86.1154 38.287 85.4774 41.5121C88.5055 40.672 91.7158 41.3432 94.2225 43.8499C98.2045 47.8319 98.2046 54.288 94.2229 58.2701L94.2235 58.2707C98.2056 62.2528 98.2056 68.7092 94.2235 72.6913C91.8647 75.0501 88.6378 76.0117 85.5713 75.576C86.0065 78.6422 85.0448 81.8686 82.6864 84.2271C80.3276 86.5859 77.1006 87.5474 74.0341 87.1118C74.4695 90.1782 73.5079 93.4049 71.1493 95.7635C68.7905 98.1223 65.5635 99.0839 62.4969 98.6482C62.9324 101.715 61.9708 104.941 59.6121 107.3C55.63 111.282 49.1737 111.282 45.1916 107.3L45.1567 107.265C41.1513 110.547 35.2317 110.318 31.493 106.579C29.1344 104.221 28.1728 100.994 28.6082 97.9279C25.5416 98.3636 22.3147 97.402 19.9559 95.0432C17.5972 92.6845 16.6356 89.4579 17.0711 86.3914C14.0045 86.8271 10.7776 85.8655 8.41878 83.5067C4.67983 79.7678 4.4515 73.8476 7.73379 69.8422L7.69809 69.8065Z" fill="#EBEFF3"/>
<path d="M16.3504 52.5012L15.7767 56.5394L21.152 57.3031L20.3886 51.9277L16.3504 52.5012ZM27.8875 40.9647L27.3138 45.0029L32.689 45.7665L31.9257 40.3913L27.8875 40.9647ZM39.4245 29.4283L38.8509 33.4665L44.2257 34.23L43.4628 28.8551L39.4245 29.4283ZM56.7288 20.7761L53.8452 23.6606L56.7288 26.5434L59.6125 23.6606L56.7288 20.7761ZM74.0331 29.429L69.9948 28.8555L69.2315 34.2308L74.6068 33.4672L74.0331 29.429ZM85.4774 41.5121L81.4762 40.7206L80.1922 47.2112L86.5678 45.4424L85.4774 41.5121ZM94.2229 58.2701L91.3386 55.3862L88.4548 58.2703L91.3388 61.1542L94.2229 58.2701ZM85.5713 75.576L86.1449 71.5378L80.7701 70.7743L81.533 76.1492L85.5713 75.576ZM74.0341 87.1118L74.6077 83.0736L69.2325 82.31L69.9958 87.6852L74.0341 87.1118ZM62.4969 98.6482L63.0706 94.61L57.6954 93.8464L58.4587 99.2217L62.4969 98.6482ZM45.1567 107.265L48.0408 104.381L45.4289 101.769L42.5717 104.11L45.1567 107.265ZM28.6082 97.9279L32.6464 98.5013L33.4096 93.1261L28.0345 93.8897L28.6082 97.9279ZM17.0711 86.3914L21.1093 86.9649L21.8727 81.5896L16.4974 82.3532L17.0711 86.3914ZM7.73379 69.8422L10.8886 72.4275L13.23 69.5702L10.6179 66.9581L7.73379 69.8422ZM4.81396 52.5018C-0.761029 58.0768 -0.761007 67.1157 4.81397 72.6906L10.5822 66.9224C8.19292 64.5331 8.19292 60.6593 10.5822 58.2701L4.81396 52.5018ZM16.9241 48.463C12.6422 47.8547 8.11814 49.1976 4.81396 52.5018L10.5822 58.2701C11.9956 56.8566 13.9254 56.2764 15.7767 56.5394L16.9241 48.463ZM16.3511 40.9653C13.0471 44.2693 11.7041 48.7931 12.3122 53.0747L20.3886 51.9277C20.1257 50.0765 20.706 48.1469 22.1193 46.7336L16.3511 40.9653ZM28.4612 36.9265C24.1793 36.3182 19.6553 37.6611 16.3511 40.9653L22.1193 46.7336C23.5327 45.3201 25.4625 44.7399 27.3138 45.0029L28.4612 36.9265ZM27.8882 29.4289C24.5842 32.7329 23.2413 37.2566 23.8493 41.5382L31.9257 40.3913C31.6629 38.54 32.2431 36.6104 33.6564 35.1971L27.8882 29.4289ZM39.9982 25.3901C35.7164 24.7818 31.1923 26.1247 27.8882 29.4289L33.6564 35.1971C35.0698 33.7837 36.9995 33.2035 38.8509 33.4665L39.9982 25.3901ZM39.4253 17.8931C36.1216 21.1968 34.7786 25.7201 35.3862 30.0014L43.4628 28.8551C43.2001 27.004 43.7803 25.0746 45.1935 23.6613L39.4253 17.8931ZM59.6125 17.8915C54.0374 12.3181 44.9997 12.3187 39.4253 17.8931L45.1935 23.6613C47.5826 21.2723 51.4558 21.2721 53.8452 23.6606L59.6125 17.8915ZM74.0324 17.8931C68.4579 12.3186 59.4203 12.3181 53.8452 17.8915L59.6125 23.6606C62.0018 21.272 65.8751 21.2723 68.2642 23.6613L74.0324 17.8931ZM78.0713 30.0025C78.6794 25.7208 77.3364 21.1971 74.0324 17.8931L68.2642 23.6613C69.6775 25.0747 70.2577 27.0043 69.9948 28.8555L78.0713 30.0025ZM85.5695 29.4296C82.2653 26.1254 77.7412 24.7825 73.4594 25.3908L74.6068 33.4672C76.4581 33.2042 78.3879 33.7844 79.8013 35.1978L85.5695 29.4296ZM89.4786 42.3036C90.3694 37.8005 89.0713 32.9314 85.5695 29.4296L79.8013 35.1978C81.2981 36.6947 81.8614 38.7734 81.4762 40.7206L89.4786 42.3036ZM86.5678 45.4424C88.2456 44.977 89.9189 45.3146 91.3384 46.734L97.1066 40.9658C93.5127 37.3718 88.7654 36.3671 84.387 37.5818L86.5678 45.4424ZM91.3384 46.734C93.7276 49.1232 93.7277 52.9969 91.3386 55.3862L97.1071 61.1541C102.682 55.5791 102.681 46.5406 97.1066 40.9658L91.3384 46.734ZM97.1076 55.3866L97.107 55.386L91.3388 61.1542L91.3394 61.1548L97.1076 55.3866ZM97.1076 75.5754C102.683 70.0004 102.683 60.9616 97.1076 55.3866L91.3394 61.1548C93.7286 63.5441 93.7286 67.4179 91.3394 69.8072L97.1076 75.5754ZM84.9976 79.6143C89.2794 80.2225 93.8034 78.8796 97.1076 75.5754L91.3394 69.8072C89.926 71.2206 87.9962 71.8008 86.1449 71.5378L84.9976 79.6143ZM85.5705 87.1112C88.8742 83.8075 90.2172 79.2842 89.6095 75.0029L81.533 76.1492C81.7957 78.0003 81.2155 79.9297 79.8023 81.343L85.5705 87.1112ZM73.4604 91.15C77.7422 91.7583 82.2663 90.4154 85.5705 87.1112L79.8023 81.343C78.3888 82.7564 76.4591 83.3366 74.6077 83.0736L73.4604 91.15ZM74.0334 98.6476C77.3373 95.3437 78.6803 90.8199 78.0723 86.5383L69.9958 87.6852C70.2587 89.5365 69.6785 91.4661 68.2651 92.8794L74.0334 98.6476ZM61.9233 102.686C66.2051 103.295 70.7292 101.952 74.0334 98.6476L68.2651 92.8794C66.8517 94.2928 64.922 94.873 63.0706 94.61L61.9233 102.686ZM62.4963 110.184C65.8003 106.88 67.1432 102.356 66.5352 98.0748L58.4587 99.2217C58.7216 101.073 58.1414 103.003 56.728 104.416L62.4963 110.184ZM42.3075 110.184C47.8824 115.759 56.9213 115.759 62.4963 110.184L56.728 104.416C54.3388 106.805 50.465 106.805 48.0757 104.416L42.3075 110.184ZM42.2725 110.149L42.3075 110.184L48.0757 104.416L48.0408 104.381L42.2725 110.149ZM42.5717 104.11C40.1719 106.076 36.6186 105.937 34.3771 103.695L28.6089 109.464C33.8448 114.699 42.1307 115.017 47.7416 110.42L42.5717 104.11ZM34.3771 103.695C32.9638 102.282 32.3836 100.352 32.6464 98.5013L24.5699 97.3546C23.962 101.636 25.305 106.16 28.6089 109.464L34.3771 103.695ZM17.0718 97.9273C20.376 101.231 24.9 102.574 29.1818 101.966L28.0345 93.8897C26.1832 94.1527 24.2534 93.5725 22.84 92.1591L17.0718 97.9273ZM13.0329 85.818C12.4248 90.0996 13.7678 94.6233 17.0718 97.9273L22.84 92.1591C21.4267 90.7458 20.8464 88.8161 21.1093 86.9649L13.0329 85.818ZM5.53467 86.3908C8.83885 89.695 13.363 91.0379 17.6448 90.4296L16.4974 82.3532C14.6461 82.6162 12.7163 82.036 11.3029 80.6226L5.53467 86.3908ZM4.57901 67.257C-0.0189692 72.8679 0.298401 81.1546 5.53467 86.3908L11.3029 80.6226C9.06127 78.381 8.92198 74.8273 10.8886 72.4275L4.57901 67.257ZM4.81397 72.6906L4.84968 72.7263L10.6179 66.9581L10.5822 66.9224L4.81397 72.6906Z" fill="black" mask="url(#path-1-inside-1)"/>
<path d="M11.304 71.97C9.71116 70.3772 9.71116 67.7946 11.304 66.2018L53.1237 24.3821C54.7165 22.7893 57.2991 22.7893 58.8919 24.3821L90.6172 56.1074C92.21 57.7002 92.21 60.2828 90.6172 61.8756L48.7975 103.695C47.2047 105.288 44.6221 105.288 43.0293 103.695L11.304 71.97Z" fill="#EBEFF3"/>
<circle cx="34.3786" cy="69.8068" r="2.54922" transform="rotate(-45 34.3786 69.8068)" fill="black"/>
<circle cx="46.6364" cy="57.5493" r="2.54922" transform="rotate(-45 46.6364 57.5493)" fill="black"/>
<circle cx="58.8942" cy="45.2918" r="2.54922" transform="rotate(-45 58.8942 45.2918)" fill="black"/>
<circle cx="46.6364" cy="82.0642" r="2.54922" transform="rotate(-45 46.6364 82.0642)" fill="black"/>
<circle cx="58.8942" cy="69.8068" r="2.54922" transform="rotate(-45 58.8942 69.8068)" fill="black"/>
<circle cx="71.152" cy="57.5493" r="2.54922" transform="rotate(-45 71.152 57.5493)" fill="black"/>
<path d="M42.0044 41.1075L34.0527 11.3626L87.358 18.7252L93.5426 38.1625L69.6878 47.8811L54.9625 38.1625L42.0044 41.1075Z" fill="#EBEFF3"/>
<path d="M36.998 30.2109L42.0046 41.1075L54.9628 38.1625L69.688 47.8811L81.4682 45.2306" stroke="black" stroke-width="4.07875"/>
<path d="M49.9551 5.67553L54.5371 4L52.4543 10.2832L49.9551 5.67553Z" stroke="black" stroke-width="2.17198"/>
<path d="M75.7808 7.35106L74.1147 10.2832L78.2801 9.02659L75.7808 7.35106Z" stroke="black" stroke-width="2.17198"/>
<path d="M80.3628 25.363L72.4485 27.0385L78.2801 33.3218L80.3628 25.363Z" stroke="black" stroke-width="2.17198"/>
</svg>
