<svg width="38" height="43" viewBox="0 0 38 43" fill="none" xmlns="http://www.w3.org/2000/svg">
<path d="M3.24872 42.2794C4.24788 42.2794 5.06771 41.9208 6.11812 41.3315L34.4791 24.9093C36.5287 23.7308 37.2717 22.8853 37.2717 21.5275C37.2717 20.1696 36.5287 19.3242 34.4791 18.1457L6.11812 1.72344C5.06771 1.13419 4.24788 0.775515 3.24872 0.775515C1.4041 0.775515 0.17435 2.1846 0.17435 4.38789V38.6671C0.17435 40.8704 1.4041 42.2794 3.24872 42.2794ZM4.68342 37.2067C4.5297 37.2067 4.45284 37.1043 4.45284 36.9249V6.13003C4.45284 5.9507 4.5297 5.84822 4.68342 5.84822C4.7859 5.84822 4.86276 5.89946 4.96524 5.9507L31.4304 21.2713C31.5329 21.3225 31.6354 21.3994 31.6354 21.5275C31.6354 21.6556 31.5329 21.7324 31.4304 21.8093L4.96524 37.1043C4.86276 37.1555 4.7859 37.2067 4.68342 37.2067Z" fill="black"/>
</svg>
