<svg width="50" height="34" viewBox="0 0 50 34" fill="none" xmlns="http://www.w3.org/2000/svg">
<path d="M39.1995 32.7806C39.748 33.3292 40.6181 33.367 41.1856 32.7806C41.7719 32.1754 41.7341 31.3431 41.1856 30.7946L11.035 0.662877C10.4864 0.114341 9.57851 0.114341 9.02997 0.662877C8.50035 1.1925 8.50035 2.11934 9.02997 2.64896L39.1995 32.7806ZM25.1834 1.68429C22.0624 1.68429 19.2441 2.21391 16.6149 3.084L19.263 5.75103C21.1356 5.18357 23.0649 4.86202 25.1834 4.86202C36.7405 4.86202 46.0089 15.0005 46.0089 17.1001C46.0089 18.5376 43.0203 22.2828 38.2726 25.2335L40.7505 27.6925C46.3872 24.023 49.6973 19.2185 49.6973 17.1001C49.6973 13.4305 39.7669 1.68429 25.1834 1.68429ZM25.1834 32.5347C28.4936 32.5347 31.52 31.9484 34.2816 31.0026L31.6335 28.3545C29.6095 28.9598 27.4721 29.3381 25.1834 29.3381C13.6074 29.3381 4.32012 19.6158 4.32012 17.1001C4.32012 15.8706 7.47894 11.8795 12.5293 8.79635L10.0325 6.29956C4.13097 10.0069 0.650605 14.9437 0.650605 17.1001C0.650605 20.7507 10.7891 32.5347 25.1834 32.5347ZM34.2059 20.7507C34.7166 19.6347 35.0003 18.3863 35.0003 17.1001C35.0003 11.6336 30.631 7.32098 25.1834 7.32098C23.8783 7.32098 22.6488 7.58579 21.5328 8.05866L34.2059 20.7507ZM25.1834 26.8981C26.6399 26.8981 28.0207 26.5387 29.2502 25.9523L16.2934 12.9766C15.6881 14.225 15.3476 15.6058 15.3476 17.1001C15.3665 22.4341 19.717 26.8981 25.1834 26.8981Z" fill="black"/>
</svg>
